<svg xmlns="http://www.w3.org/2000/svg" viewBox="0 0 512 512" width="512" height="512">
  <!-- Ocean -->
  <circle cx="256" cy="256" r="256" fill="#1e90ff"/>
  
  <!-- Continents -->
  <path fill="#34a853" d="M180 120c-20 10-40 35-35 55s25 20 35 25c10 5 15 20 20 30 5 10 15 25 30 20s15-15 15-30-10-30-20-40c-10-10-10-20-15-35-5-15-10-25-30-25zm160 70c-15 0-30 5-30 20s10 20 15 30 5 20 20 30 30 5 40-5 15-20 15-30-5-25-15-35-20-10-45-10zm-110 180c-10 0-15 10-15 20s0 25 10 30c10 5 25 5 35-5 10-10 5-20-5-30s-15-15-25-15zm150 20c-10 0-15 5-20 15s0 20 10 25c10 5 20 0 25-5 5-5 5-15 0-25s-10-10-15-10z"/>
  
  <!-- Optional subtle meridians/parallels -->
  <circle cx="256" cy="256" r="200" fill="none" stroke="#ffffff" stroke-opacity="0.2" stroke-width="8"/>
  <circle cx="256" cy="256" r="140" fill="none" stroke="#ffffff" stroke-opacity="0.15" stroke-width="6"/>
  <path d="M256 56v400M56 256h400" stroke="#ffffff" stroke-opacity="0.2" stroke-width="8"/>
</svg>
